<svg width="26" height="32" viewBox="0 0 26 32" fill="none" xmlns="http://www.w3.org/2000/svg">
<path d="M13 0.166504V9.6665C13 10.5064 13.3336 11.3118 13.9275 11.9057C14.5214 12.4995 15.3268 12.8332 16.1667 12.8332H25.6667V28.6665C25.6667 29.5064 25.333 30.3118 24.7392 30.9057C24.1453 31.4995 23.3399 31.8332 22.5 31.8332H3.50001C2.66016 31.8332 1.8547 31.4995 1.26084 30.9057C0.666973 30.3118 0.333344 29.5064 0.333344 28.6665V3.33317C0.333344 2.49332 0.666973 1.68786 1.26084 1.094C1.8547 0.500134 2.66016 0.166504 3.50001 0.166504H13Z" fill="white"/>
<path d="M15.375 0.958008V9.66634C15.375 9.8763 15.4584 10.0777 15.6069 10.2261C15.7553 10.3746 15.9567 10.458 16.1667 10.458H24.875L15.375 0.958008Z" fill="white"/>
</svg>
