<svg width="118" height="25" viewBox="0 0 118 25" fill="none" xmlns="http://www.w3.org/2000/svg">
<path d="M24.4059 23.8756V1.06396H31.9356V10.7975L36.8067 1.06396H45.5035L39.0494 12.2942L46.4016 23.8756H37.1111L31.9407 14.3355V23.8756H24.4059Z" fill="#6D1ED0"/>
<path d="M72.5579 23.8349V1.02325H82.2087C84.8167 1.02325 86.8615 1.59851 88.3329 2.74393C90.0074 4.04207 90.8446 6.03255 90.8446 8.71029C90.8446 10.3291 90.4691 11.668 89.7232 12.732C88.9773 13.7959 87.9778 14.4017 86.7194 14.5494L92.4277 23.8349H83.8222L80.0877 16.3057V23.8349H72.5579ZM80.0827 6.89289V11.3575H81.2801C82.7922 11.3575 83.5533 10.6244 83.5533 9.15827C83.5533 8.41502 83.3655 7.84995 82.985 7.46814C82.6044 7.08634 82.0361 6.89289 81.2801 6.89289H80.0827Z" fill="#6D1ED0"/>
<path d="M93.4932 23.8349L100.642 2.4283C100.927 1.58323 101.672 1.01816 102.515 1.01816H108.253C109.096 1.01816 109.852 1.58832 110.126 2.43848L117.128 23.8349H108.883L108.198 20.9637H102.403L101.743 23.8349H93.4932ZM103.682 15.5421H106.878L106.219 12.956C105.701 10.9349 105.412 9.26517 105.351 7.94667H105.204C105.143 9.26517 104.854 10.9349 104.336 12.956L103.682 15.5421Z" fill="#6D1ED0"/>
<path d="M56.651 19.3398L52.3128 15.5319H57.6759L59.2337 7.99249C59.2337 7.97722 59.2337 7.96194 59.2387 7.95176H59.2438L59.3351 7.50887L60.9943 15.5319H66.3575L62.0193 19.3398L63.2269 23.8349H71.1626L64.1301 2.35703C63.8662 1.55778 63.1609 1.02325 62.3694 1.02325H56.4633C55.6717 1.02325 54.9715 1.55269 54.7077 2.34685L47.5229 23.8349H55.4434L56.651 19.3398Z" fill="#6D1ED0"/>
<path d="M6.65706 12.5589C6.65706 11.2709 6.69258 10.5073 6.71795 9.94224C6.89554 6.31253 8.3264 5.89 11.1019 5.89C13.8773 5.89 15.3082 6.31253 15.4909 9.94224C15.5162 10.5073 15.5467 11.276 15.5467 12.5589C15.5467 13.857 15.5162 14.6155 15.4909 15.1908C15.3082 18.8103 13.8824 19.2379 11.1019 19.2379C8.3264 19.2379 6.90061 18.8103 6.71795 15.1908C6.69258 14.6155 6.65706 13.8519 6.65706 12.5589ZM11.0968 24.7359C18.1649 24.7359 21.5746 23.4887 22.0566 17.0896C22.1733 15.5675 22.1936 14.0047 22.1987 12.5589C22.1987 11.1182 22.1733 9.56043 22.0566 8.03321C21.5746 1.63923 18.1649 0.386902 11.0968 0.386902C4.03381 0.386902 0.619026 1.63923 0.136998 8.03321C0.0202962 9.56043 0 11.1233 0 12.5589C0 14.0047 0.0202962 15.5675 0.136998 17.0896C0.6241 23.4887 4.03381 24.7359 11.0968 24.7359Z" fill="#6D1ED0"/>
</svg>
