<svg width="159" height="26" viewBox="0 0 159 26" fill="none" xmlns="http://www.w3.org/2000/svg">
<path fill-rule="evenodd" clip-rule="evenodd" d="M136.03 16.12V24.895H132.965V14.6589C132.965 11.9939 130.225 10.9539 127.516 10.9539H126.129C123.42 10.9539 120.711 11.9939 120.711 14.6589V24.895H117.616V8.8089H120.681V9.58608C121.067 9.22999 121.583 8.83999 122.067 8.6789C123.163 8.25499 124.678 7.99499 127.065 7.99499C129.259 7.99499 130.839 8.12499 131.903 8.41608C133.063 8.70999 133.965 9.22999 134.707 10.0411C135.223 10.66 135.579 11.3411 135.772 12.1889C135.932 12.9011 136.03 14.105 136.03 16.12ZM83.8559 7.92999H86.9207C86.9515 6.30499 87.0159 4.71108 87.1784 3.9989C87.3381 3.2839 87.6294 2.69608 88.1141 2.20999C88.6296 1.59108 89.4028 1.10499 90.3692 0.813903C91.2741 0.553903 92.8541 0.32499 94.9496 0.291077H97.8182L95.0448 2.98999C94.9496 2.98999 93.9495 3.02108 93.8514 3.02108C89.7893 3.02108 90.0807 5.6239 90.0807 7.92999H97.2383L94.336 10.8889H89.9826L90.0163 24.8611H86.9207V10.8889H83.8559V7.92999ZM80.7604 2.66499H83.8559V5.81608H80.7604V2.66499Z" fill="#FF2E17"/>
<path fill-rule="evenodd" clip-rule="evenodd" d="M57.0604 16.445C57.0604 18.3611 56.8363 19.9211 56.3852 21.125C55.9314 22.3289 54.4158 25.09 47.0005 25.09C39.5515 25.09 38.0359 22.3289 37.5849 21.125C37.1339 19.9211 36.9406 18.3611 36.9406 16.445C36.9406 14.5261 37.1339 12.9661 37.5849 11.7961C38.0359 10.5639 39.5515 7.79999 47.0005 7.79999C54.4158 7.79999 55.9314 10.5639 56.3852 11.7961C56.8363 12.9661 57.0604 14.5261 57.0604 16.445ZM53.1608 12.74C52.8694 12.0589 52.3848 11.6039 51.6116 11.3411C50.8384 11.0839 49.4181 10.9539 47.0005 10.8889C44.5492 10.9539 43.1625 11.0839 42.3585 11.3411C41.5825 11.6039 41.1007 12.0589 40.8093 12.74C40.5852 13.2911 40.3275 14.5911 40.3275 16.445C40.3275 18.33 40.5852 19.5989 40.8093 20.15C41.1007 20.8339 41.5825 21.2889 42.3585 21.5461C43.1625 21.8089 44.5492 21.97 47.0005 22.0011C49.4181 21.97 50.8384 21.8089 51.6116 21.5461C52.3848 21.2889 52.8694 20.8339 53.1608 20.15C53.3849 19.5989 53.6426 18.33 53.6426 16.445C53.6426 14.5911 53.3849 13.2911 53.1608 12.74Z" fill="#005DB2"/>
<path fill-rule="evenodd" clip-rule="evenodd" d="M115.361 16.445C115.361 18.3611 115.134 19.9211 114.683 21.125C114.232 22.3289 112.716 25.09 105.301 25.09C97.8826 25.09 96.3363 22.3289 95.8852 21.125C95.465 19.9211 95.2381 18.3611 95.2381 16.445C95.2381 14.5261 95.465 12.9661 95.8852 11.7961C96.3363 10.5639 97.8826 7.79999 105.301 7.79999C112.716 7.79999 114.232 10.5639 114.683 11.7961C115.134 12.9661 115.361 14.5261 115.361 16.445ZM111.458 12.74C111.201 12.0589 110.685 11.6039 109.912 11.3411C109.136 11.0839 107.749 10.9539 105.301 10.8889C102.85 10.9539 101.463 11.0839 100.656 11.3411C99.8828 11.6039 99.3982 12.0589 99.1097 12.74C98.8827 13.2911 98.625 14.5911 98.625 16.445C98.625 18.33 98.8827 19.5989 99.1097 20.15C99.3982 20.8339 99.8828 21.2889 100.656 21.5461C101.463 21.8089 102.85 21.97 105.301 22.0011C107.749 21.97 109.136 21.8089 109.912 21.5461C110.685 21.2889 111.201 20.8339 111.458 20.15C111.716 19.5989 111.943 18.33 111.943 16.445C111.943 14.5911 111.716 13.2911 111.458 12.74Z" fill="#FF2E17"/>
<path fill-rule="evenodd" clip-rule="evenodd" d="M34.4585 12.155C34.2652 11.31 33.9094 10.6261 33.394 10.01C32.6516 9.19609 31.7496 8.67892 30.5561 8.385C29.4916 8.09109 27.9116 7.96109 25.7181 7.96109C23.3341 7.96109 21.7205 8.15892 20.6251 8.58H20.5915C19.6894 8.905 18.9471 9.49 18.4008 10.335C17.7537 9.45892 16.9497 8.87392 15.9496 8.515C14.8206 8.15892 12.6915 7.96109 10.047 7.96109C8.04955 7.96109 6.66285 8.09109 5.82523 8.385C5.21172 8.645 4.59821 9.035 4.01831 9.58609V8.775H0.956363V24.8611H4.01831V14.625C4.01831 11.96 6.72728 10.92 9.46707 10.92H10.823C13.5627 10.92 16.3025 11.96 16.3025 14.625V24.8611H19.3673V14.625C19.3673 11.96 22.0426 10.92 24.7852 10.92H26.1719C28.9117 10.92 31.6515 11.96 31.6515 14.625V24.8611H34.7163V16.0861C34.7163 14.105 34.6518 12.87 34.4585 12.155Z" fill="#005DB2"/>
<path fill-rule="evenodd" clip-rule="evenodd" d="M156.472 17.6461H141.414C141.478 18.8811 141.672 19.7289 141.865 20.15C142.123 20.8339 142.638 21.2889 143.414 21.5461C144.187 21.8089 145.574 21.97 148.025 22.0011C150.474 21.97 151.86 21.8089 152.667 21.5461C153.152 21.385 153.538 21.125 153.827 20.7689H157.536C157.505 20.8961 157.472 20.995 157.441 21.125C156.987 22.3289 155.441 25.09 148.025 25.09C140.607 25.09 139.091 22.3289 138.64 21.125C138.189 19.9211 137.963 18.3611 137.963 16.445C137.963 14.5261 138.189 12.9661 138.64 11.7961C139.091 10.5639 140.607 7.79999 148.025 7.79999C155.441 7.79999 156.987 10.5639 157.441 11.7961C157.858 12.9661 158.085 14.5261 158.085 16.445C158.085 16.8689 158.085 17.2561 158.052 17.615H156.472V17.6461ZM141.865 12.74C141.705 13.0989 141.543 13.78 141.447 14.7239H154.603C154.505 13.78 154.345 13.0989 154.216 12.74C153.925 12.0589 153.44 11.6039 152.667 11.3411C151.86 11.0839 150.474 10.9539 148.025 10.8889C145.574 10.9539 144.187 11.0839 143.414 11.3411C142.638 11.6039 142.123 12.0589 141.865 12.74Z" fill="#FF2E17"/>
<path fill-rule="evenodd" clip-rule="evenodd" d="M80.7604 7.92999H83.856V24.8611H80.7604V7.92999ZM78.6005 16.445C78.6005 18.3611 78.3764 19.9211 77.9562 21.125C77.5051 22.3289 75.9559 25.09 68.5406 25.09C65.7027 25.09 63.7362 24.7 62.3495 24.115V24.895H59.2875V0.291077H62.3495V8.77499C63.7362 8.18999 65.7027 7.79999 68.5406 7.79999C75.9559 7.79999 77.5051 10.5639 77.9562 11.7961C78.3764 12.9661 78.6005 14.5261 78.6005 16.445ZM75.2164 16.445C75.2164 14.5911 74.9558 13.2911 74.7317 12.74C74.4404 12.0589 73.9585 11.6039 73.1825 11.3411C72.3785 11.0839 70.9918 10.9539 68.5406 10.8889C66.0893 10.9539 65.1537 11.0839 64.3497 11.3411C63.5737 11.6039 63.0918 12.0589 62.8005 12.74C62.6072 13.1639 62.4139 14.0711 62.3495 15.34V17.55C62.4139 18.8161 62.6072 19.7289 62.8005 20.15C63.0918 20.8339 63.5737 21.2889 64.3497 21.5461C65.1537 21.8089 66.0893 21.97 68.5406 22.0011C70.9918 21.97 72.3785 21.8089 73.1825 21.5461C73.9585 21.2889 74.4404 20.8339 74.7317 20.15C74.9558 19.63 75.2164 18.33 75.2164 16.445Z" fill="#005DB2"/>
</svg>
